<svg display="none" xmlns="http://www.w3.org/2000/svg">

<symbol viewBox="0 0 482.9 482.9" id="user">
<path d="M239.7 260.2h3.2c29.3-.5 53-10.8 70.5-30.5 38.5-43.4 32.1-117.8 31.4-124.9-2.5-53.3-27.7-78.8-48.5-90.7C280.8 5.2 262.7.4 242.5 0h-1.7c-11.1 0-32.9 1.8-53.8 13.7-21 11.9-46.6 37.4-49.1 91.1-.7 7.1-7.1 81.5 31.4 124.9 17.4 19.7 41.1 30 70.4 30.5zm-75.1-152.9c0-.3.1-.6.1-.8 3.3-71.7 54.2-79.4 76-79.4h1.2c27 .6 72.9 11.6 76 79.4 0 .3 0 .6.1.8.1.7 7.1 68.7-24.7 104.5-12.6 14.2-29.4 21.2-51.5 21.4h-1c-22-.2-38.9-7.2-51.4-21.4-31.7-35.6-24.9-103.9-24.8-104.5z"></path>
<path d="M446.8 383.6v-.3c0-.8-.1-1.6-.1-2.5-.6-19.8-1.9-66.1-45.3-80.9-.3-.1-.7-.2-1-.3-45.1-11.5-82.6-37.5-83-37.8-6.1-4.3-14.5-2.8-18.8 3.3-4.3 6.1-2.8 14.5 3.3 18.8 1.7 1.2 41.5 28.9 91.3 41.7 23.3 8.3 25.9 33.2 26.6 56 0 .9 0 1.7.1 2.5.1 9-.5 22.9-2.1 30.9-16.2 9.2-79.7 41-176.3 41-96.2 0-160.1-31.9-176.4-41.1-1.6-8-2.3-21.9-2.1-30.9 0-.8.1-1.6.1-2.5.7-22.8 3.3-47.7 26.6-56 49.8-12.8 89.6-40.6 91.3-41.7 6.1-4.3 7.6-12.7 3.3-18.8-4.3-6.1-12.7-7.6-18.8-3.3-.4.3-37.7 26.3-83 37.8-.4.1-.7.2-1 .3-43.4 14.9-44.7 61.2-45.3 80.9 0 .9 0 1.7-.1 2.5v.3c-.1 5.2-.2 31.9 5.1 45.3 1 2.6 2.8 4.8 5.2 6.3 3 2 74.9 47.8 195.2 47.8s192.2-45.9 195.2-47.8c2.3-1.5 4.2-3.7 5.2-6.3 5-13.3 4.9-40 4.8-45.2z"></path>
</symbol>

<symbol viewBox="0 0 512 512" id="login">
<path d="M453.332 512h-224c-32.363 0-58.664-26.305-58.664-58.668v-96c0-8.832 7.168-16 16-16s16 7.168 16 16v96c0 14.7 11.965 26.668 26.664 26.668h224c14.7 0 26.668-11.969 26.668-26.668V58.668C480 43.968 468.031 32 453.332 32h-224c-14.7 0-26.664 11.969-26.664 26.668v96c0 8.832-7.168 16-16 16s-16-7.168-16-16v-96c0-32.363 26.3-58.668 58.664-58.668h224C485.695 0 512 26.305 512 58.668v394.664C512 485.695 485.695 512 453.332 512zm0 0"></path>
<path d="M325.332 272H16c-8.832 0-16-7.168-16-16s7.168-16 16-16h309.332c8.832 0 16 7.168 16 16s-7.168 16-16 16zm0 0"></path>
<path d="M240 357.332c-4.098 0-8.191-1.555-11.309-4.691-6.25-6.25-6.25-16.383 0-22.637l74.028-74.024-74.028-74.027c-6.25-6.25-6.25-16.387 0-22.637 6.254-6.25 16.387-6.25 22.637 0l85.332 85.336c6.25 6.25 6.25 16.383 0 22.633l-85.332 85.332A15.88 15.88 0 0 1 240 357.332zm0 0"></path>
</symbol>

<symbol viewBox="0 0 512.016 512" id="logout">
<path d="M282.668 512.008h-224C26.305 512.008 0 485.703 0 453.34V58.676C0 26.312 26.305.008 58.668.008h224c32.363 0 58.664 26.304 58.664 58.668v117.332c0 8.832-7.168 16-16 16s-16-7.168-16-16V58.676c0-14.7-11.965-26.668-26.664-26.668h-224C43.968 32.008 32 43.977 32 58.676V453.34c0 14.7 11.969 26.668 26.668 26.668h224c14.7 0 26.664-11.969 26.664-26.668V336.008c0-8.832 7.168-16 16-16s16 7.168 16 16V453.34c0 32.363-26.3 58.668-58.664 58.668zm0 0"></path>
<path d="M496 272.008H186.668c-8.832 0-16-7.168-16-16s7.168-16 16-16H496c8.832 0 16 7.168 16 16s-7.168 16-16 16zm0 0"></path>
<path d="M410.668 357.34c-4.098 0-8.191-1.555-11.309-4.692-6.25-6.25-6.25-16.382 0-22.636l74.028-74.024-74.028-74.027c-6.25-6.25-6.25-16.387 0-22.637s16.383-6.25 22.637 0l85.332 85.336c6.25 6.25 6.25 16.383 0 22.633l-85.332 85.332a15.886 15.886 0 0 1-11.328 4.715zm0 0"></path>
</symbol>

<symbol viewBox="0 0 20 18" id="photo">
<path d="M20 5.851v8.825a2.442 2.442 0 0 1-2.44 2.44H2.44A2.442 2.442 0 0 1 0 14.676V5.85a2.324 2.324 0 0 1 2.322-2.32h3.25l.077-.34A2.967 2.967 0 0 1 8.555.885h2.894c1.392 0 2.588.947 2.906 2.306l.078.339h3.245A2.326 2.326 0 0 1 20 5.85zM14.033 4.53a.498.498 0 0 1-.486-.388l-.167-.727a1.974 1.974 0 0 0-1.931-1.53H8.555c-.926 0-1.718.628-1.93 1.53l-.168.727a.502.502 0 0 1-.486.388H2.327c-.731 0-1.323.592-1.323 1.322v8.825c0 .796.645 1.44 1.44 1.44H17.56A1.44 1.44 0 0 0 19 14.676V5.85c0-.73-.592-1.322-1.322-1.322h-3.645z"
fill="#fff"></path>
<path d="M10 14.549a4.207 4.207 0 0 1-4.2-4.2c0-2.314 1.886-4.2 4.2-4.2 2.315 0 4.2 1.882 4.2 4.2 0 2.318-1.885 4.2-4.2 4.2zm0-7.4a3.205 3.205 0 0 0-3.2 3.2c0 1.763 1.437 3.2 3.2 3.2 1.764 0 3.2-1.437 3.2-3.2 0-1.763-1.436-3.2-3.2-3.2z" fill="#fff"></path>
</symbol>


<symbol viewBox="0 0 24 24" id="telegram">
<path d="M.415 11.196l5.869 2.925a.752.752 0 0 0 .712-.023l5.224-3.037-3.162 2.802a.751.751 0 0 0-.253.562v6.825c0 .72.919 1.023 1.35.451l2.537-3.373 6.274 3.573a.75.75 0 0 0 1.106-.504l3.913-19.5a.75.75 0 0 0-1.008-.846L.477 9.826a.75.75 0 0 0-.062 1.37zm21.83-8.249l-3.439 17.137-5.945-3.386a.752.752 0 0 0-.971.201l-1.585 2.107v-4.244l8.551-7.576c.677-.599-.101-1.664-.874-1.21l-11.39 6.622L2.6 10.609z"></path>
</symbol>

<symbol viewBox="0 0 20 20" id="twitter">
<g clip-path="url(#clip0)">
<path d="M7.61 18.27c-3.338 0-5.976-.583-7.238-1.6l-.025-.02-.022-.022c-.3-.3-.398-.693-.27-1.08l.012-.031c.156-.391.54-.654.954-.657.854-.014 1.601-.116 2.279-.314-1.081-.503-1.833-1.374-2.28-2.634a.934.934 0 0 1 .326-1.089.954.954 0 0 1 .285-.145A6.308 6.308 0 0 1 .337 8.36L.33 8.334l-.005-.026c-.084-.423.104-.857.45-1.044a.968.968 0 0 1 .461-.13A4.877 4.877 0 0 1 .867 6.01c-.204-1.051-.036-2.106.5-3.133l.125-.248a.694.694 0 0 1 1.107-.18l.226.226c1.786 1.872 3.385 2.76 6.15 3.367a4.899 4.899 0 0 1 1.322-2.824 4.64 4.64 0 0 1 3.312-1.46h.008c.916 0 2.052.523 2.739.892.59-.193 1.3-.492 2.036-.807a.93.93 0 0 1 1.04.183c.266.266.34.64.199 1.004-.053.15-.114.296-.182.439a.925.925 0 0 1 .271.187c.236.235.334.604.25.94l-.008.032c-.283.91-.825 1.65-1.542 2.115-.12 6.379-4.923 11.527-10.81 11.527zm-6.114-2.253c1.19.673 3.456 1.08 6.114 1.08 2.555 0 4.966-1.097 6.79-3.089C16.236 12 17.25 9.333 17.25 6.5v-.032c0-.256.14-.49.368-.611.461-.245.835-.66 1.078-1.193a.689.689 0 0 1-.662-.27.688.688 0 0 1-.005-.82c.097-.132.184-.27.262-.413-.636.267-1.24.507-1.765.666a.75.75 0 0 1-.577-.062c-.934-.52-1.803-.831-2.328-.833-1.934.03-3.507 1.687-3.507 3.696a.69.69 0 0 1-.826.679C6.1 6.678 4.211 5.736 2.247 3.762c-.282.674-.359 1.354-.229 2.025.132.68.484 1.36 1.016 1.97.202.23.23.56.067.821a.687.687 0 0 1-.765.302 3.167 3.167 0 0 1-.645-.247c.41.891 1.116 1.715 2.003 2.323a.693.693 0 0 1-.442 1.26 3.11 3.11 0 0 1-.918-.198c.497 1.013 1.292 1.57 2.517 1.783a.692.692 0 0 1 .205 1.293c-1.043.553-2.184.85-3.56.923z"
fill="#333"></path>
</g>
<defs>
<clipPath id="clip0">
<path fill="#fff" d="M0 0h20v20H0z"></path>
</clipPath>
</defs>
</symbol>

<symbol viewBox="0 0 20 20" id="vk">
<g clip-path="url(#clip0)">
<path d="M10.12 16.25c2.894 0 1.863-1.832 2.086-2.358-.003-.394-.007-.772.007-1.002.183.052.615.27 1.509 1.14 1.379 1.39 1.731 2.22 2.845 2.22h2.051c.65 0 .989-.27 1.158-.495.163-.218.323-.602.148-1.198-.457-1.437-3.126-3.918-3.291-4.18.024-.048.065-.112.085-.145h-.001c.526-.696 2.536-3.708 2.832-4.913l.002-.006c.16-.55.013-.907-.138-1.109-.229-.301-.592-.454-1.083-.454h-2.05c-.688 0-1.208.346-1.472.977-.44 1.12-1.679 3.425-2.607 4.241a53.453 53.453 0 0 1 .006-2.694c.03-1.279.126-2.524-1.201-2.524H7.782c-.831 0-1.627.908-.765 1.987.753.945.27 1.471.433 4.093-.633-.68-1.76-2.513-2.557-4.857C4.67 4.338 4.332 3.75 3.38 3.75H1.33C.496 3.75 0 4.204 0 4.963 0 6.668 3.774 16.25 10.12 16.25zM3.38 5c.18 0 .198 0 .333.382.815 2.402 2.645 5.957 3.982 5.957 1.004 0 1.004-1.029 1.004-1.417V6.837C8.642 5.818 8.271 5.309 8.027 5l2.923.003c.002.014-.017 3.413.008 4.236 0 1.17.928 1.84 2.378.373 1.529-1.726 2.586-4.306 2.629-4.411.062-.15.117-.201.313-.201h2.059l-.001.008c-.188.875-2.039 3.663-2.658 4.529a.751.751 0 0 0-.028.041c-.273.445-.494.937.037 1.629h.001c.049.058.174.195.358.385.57.588 2.525 2.6 2.698 3.4-.115.018-.24.005-2.178.009-.412 0-.735-.617-1.965-1.858-1.107-1.077-1.825-1.517-2.48-1.517-1.27 0-1.177 1.03-1.165 2.277.004 1.352-.005.925.005 1.01-.075.029-.287.087-.841.087-5.288 0-8.731-8.393-8.864-9.997.046-.004.677-.001 2.122-.002z"></path>
</g>
<defs>
<clipPath id="clip0">
<path d="M0 0h20v20H0z"></path>
</clipPath>
</defs>
</symbol>

<symbol viewBox="0 0 15 46" id="arrow">
<path d="M13.453 45.924L.953 22.962 13.452 0l.595 1.093L2.143 22.962l11.905 21.87-.595 1.092z"></path>
</symbol>

<symbol viewBox="0 0 20 18" id="arrows">
<path d="M7.937 12.19l.612-.988a.499.499 0 0 0-.163-.69.5.5 0 0 0-.69.163l-.612.988c-1.11 1.791-2.693 2.82-4.35 2.82H.498a.498.498 0 0 0-.498.502.5.5 0 0 0 .498.502h2.24c2.012-.008 3.906-1.208 5.2-3.298zm11.912-9.615L17.425.147a.498.498 0 0 0-.706 0 .498.498 0 0 0 0 .706l1.575 1.575h-2.322c-2.008 0-3.905 1.2-5.199 3.29l-.375.607a.499.499 0 1 0 .849.527l.375-.608c1.11-1.792 2.693-2.816 4.35-2.816h2.318l-1.575 1.575a.498.498 0 0 0 .355.853c.13 0 .257-.049.355-.147l2.428-2.428a.501.501 0 0 0-.004-.706zm-1.065.36v-.017l.008.008-.008.008z"
fill="#fff"></path>
<path d="M16.715 17.76a.497.497 0 0 0 .355.146c.13 0 .257-.048.355-.146l2.428-2.429a.498.498 0 0 0 0-.705L17.425 12.2a.498.498 0 0 0-.706 0 .498.498 0 0 0 0 .707l1.575 1.575h-2.248c-1.653 0-3.24-1.029-4.35-2.82L8.015 5.717c-1.294-2.093-3.191-3.289-5.2-3.289H.499A.498.498 0 0 0 0 2.93a.5.5 0 0 0 .498.502h2.314c1.652 0 3.24 1.028 4.35 2.816l3.68 5.945c1.294 2.094 3.192 3.293 5.2 3.293h2.248l-1.575 1.576a.495.495 0 0 0 0 .697zm2.069-2.788l.008.008-.008.009v-.017z"
fill="#fff"></path>
</symbol>

<symbol viewBox="0 0 15 15" id="edit">
<g clip-path="url(#clip0)" fill="#333">
<path d="M13.844 9.423a.374.374 0 0 0-.373.373v3.317a1.12 1.12 0 0 1-1.12 1.12H1.867a1.12 1.12 0 0 1-1.12-1.12V3.378c0-.618.501-1.12 1.12-1.12h3.317a.374.374 0 1 0 0-.748H1.868A1.87 1.87 0 0 0 0 3.378v9.735a1.87 1.87 0 0 0 1.868 1.868H12.35a1.87 1.87 0 0 0 1.868-1.868V9.796a.374.374 0 0 0-.374-.373z"></path>
<path d="M14.07.55a1.681 1.681 0 0 0-2.377 0L5.028 7.214a.373.373 0 0 0-.096.165l-.876 3.164a.374.374 0 0 0 .46.46l3.163-.877a.374.374 0 0 0 .165-.096l6.665-6.665a1.683 1.683 0 0 0 0-2.377L14.07.55zM5.842 7.457l5.455-5.455 1.759 1.76L7.6 9.216 5.84 7.457zm-.351.705l1.405 1.406-1.944.539.539-1.945zm8.49-5.325l-.397.396-1.76-1.759.397-.396a.934.934 0 0 1 1.32 0l.44.438a.935.935 0 0 1 0 1.321z"></path>
</g>
<defs>
<clipPath id="clip0">
<path fill="#fff" d="M0 0h15v15H0z"></path>
</clipPath>
</defs>
</symbol>

<symbol viewBox="0 0 20 20" id="envelope">
<g clip-path="url(#clip0)" fill="#333">
<path d="M17.558 2.39H2.446A2.448 2.448 0 0 0 0 4.835v10.33a2.448 2.448 0 0 0 2.446 2.445h15.108A2.448 2.448 0 0 0 20 15.164V4.84a2.445 2.445 0 0 0-2.442-2.45zm1.329 12.774a1.33 1.33 0 0 1-1.329 1.329H2.446a1.33 1.33 0 0 1-1.329-1.329V4.84a1.33 1.33 0 0 1 1.329-1.328h15.108a1.33 1.33 0 0 1 1.329 1.328v10.325h.004z"></path>
<path d="M12.614 9.871l4.891-4.386a.561.561 0 0 0 .042-.79.561.561 0 0 0-.79-.042l-6.746 6.054-1.316-1.175c-.004-.004-.008-.008-.008-.012a.828.828 0 0 0-.091-.079L3.24 4.65a.558.558 0 0 0-.79.046.558.558 0 0 0 .045.79l4.95 4.424-4.93 4.614a.56.56 0 0 0 .766.82l5.003-4.681 1.358 1.212a.558.558 0 0 0 .744-.004l1.395-1.25 4.974 4.726a.558.558 0 0 0 .77-.811l-4.912-4.664z"></path>
</g>
<defs>
<clipPath id="clip0">
<path fill="#fff" d="M0 0h20v20H0z"></path>
</clipPath>
</defs>
</symbol>

<symbol viewBox="0 0 12 20" id="facebook">
<path d="M7.35 19.96H4.141a.972.972 0 0 1-.972-.97v-7.223H1.297a.972.972 0 0 1-.972-.97V7.7c0-.535.436-.97.972-.97h1.872V5.18c0-1.537.484-2.845 1.398-3.782C5.487.46 6.77-.039 8.281-.039l2.447.004c.535 0 .97.436.97.97V3.81c0 .535-.435.97-.971.97l-1.648.001c-.502 0-.63.1-.658.131-.045.051-.099.196-.099.595v1.225h2.281a.973.973 0 0 1 .981.97l-.001 3.096c0 .534-.436.97-.972.97H8.322v7.224c0 .535-.436.97-.972.97zm-3.006-1.172h2.804v-7.546a.65.65 0 0 1 .649-.648h2.611l.001-2.69H7.796a.649.649 0 0 1-.648-.648v-1.75c0-.458.046-.979.393-1.37.418-.474 1.078-.529 1.538-.529h1.445v-2.47L8.28 1.133c-2.428 0-3.936 1.551-3.936 4.048v2.075a.65.65 0 0 1-.649.647H1.5v2.691h2.195a.65.65 0 0 1 .649.648v7.546zm6.382-17.65z"></path>
</symbol>

<symbol viewBox="0 0 20 20" id="gear">
<g clip-path="url(#clip0)" fill="#333">
<path d="M10.628 20H9.372a1.843 1.843 0 0 1-1.84-1.841v-.425a8.073 8.073 0 0 1-1.255-.52l-.3.3a1.841 1.841 0 0 1-2.605 0l-.887-.887a1.841 1.841 0 0 1 0-2.604l.301-.3a8.076 8.076 0 0 1-.52-1.254H1.84A1.843 1.843 0 0 1 0 10.628V9.372c0-1.015.826-1.84 1.841-1.84h.425c.138-.432.312-.852.52-1.255l-.3-.3a1.841 1.841 0 0 1 0-2.605l.887-.887a1.841 1.841 0 0 1 2.604 0l.3.301a8.082 8.082 0 0 1 1.254-.52V1.84C7.531.826 8.357 0 9.372 0h1.256c1.015 0 1.84.826 1.84 1.841v.425c.432.138.852.312 1.255.52l.3-.3a1.841 1.841 0 0 1 2.605 0l.887.887a1.84 1.84 0 0 1 0 2.604l-.301.3c.208.403.382.823.52 1.254h.425c1.015 0 1.841.826 1.841 1.841v1.256a1.843 1.843 0 0 1-1.841 1.84h-.425a8.07 8.07 0 0 1-.52 1.255l.3.3a1.84 1.84 0 0 1 0 2.605l-.887.887c-.71.71-1.876.728-2.604 0l-.3-.301a8.08 8.08 0 0 1-1.254.52v.425A1.843 1.843 0 0 1 10.628 20zm-4.155-4.017c.56.331 1.162.581 1.79.743.26.067.44.3.44.568v.865c0 .369.3.67.67.67h1.255a.67.67 0 0 0 .669-.67v-.865c0-.268.18-.5.44-.568a6.907 6.907 0 0 0 1.79-.743.586.586 0 0 1 .712.09l.613.613a.67.67 0 0 0 .946 0l.888-.887a.67.67 0 0 0 0-.947l-.613-.613a.586.586 0 0 1-.09-.712c.331-.56.581-1.162.743-1.79.067-.26.3-.44.568-.44h.865c.369 0 .67-.3.67-.67V9.373a.67.67 0 0 0-.67-.669h-.865c-.268 0-.5-.18-.568-.44a6.906 6.906 0 0 0-.743-1.79.586.586 0 0 1 .09-.712l.613-.613a.669.669 0 0 0 0-.946l-.887-.888a.67.67 0 0 0-.947 0l-.613.613a.586.586 0 0 1-.712.09 6.907 6.907 0 0 0-1.79-.743.586.586 0 0 1-.44-.568v-.865a.67.67 0 0 0-.67-.67H9.373a.67.67 0 0 0-.669.67v.865c0 .268-.18.5-.44.568a6.907 6.907 0 0 0-1.79.743.586.586 0 0 1-.712-.09l-.613-.613a.669.669 0 0 0-.946 0l-.888.887a.67.67 0 0 0 0 .947l.613.613a.586.586 0 0 1 .09.712 6.905 6.905 0 0 0-.743 1.79.586.586 0 0 1-.568.44h-.865a.67.67 0 0 0-.67.67v1.255a.67.67 0 0 0 .67.669h.865c.268 0 .5.18.568.44.162.628.412 1.23.743 1.79a.586.586 0 0 1-.09.712l-.613.613a.67.67 0 0 0 0 .946l.887.888a.67.67 0 0 0 .947 0l.613-.613a.588.588 0 0 1 .712-.09z"></path>
<path d="M10 14.352A4.356 4.356 0 0 1 5.65 10 4.354 4.354 0 0 1 10 5.648 4.357 4.357 0 0 1 14.351 10c0 2.4-1.952 4.352-4.351 4.352zm0-7.532A3.183 3.183 0 0 0 6.82 10 3.183 3.183 0 0 0 10 13.18 3.183 3.183 0 0 0 13.18 10 3.183 3.183 0 0 0 10 6.82z"></path>
</g>
<defs>
<clipPath id="clip0">
<path fill="#fff" d="M0 0h20v20H0z"></path>
</clipPath>
</defs>
</symbol>

<symbol viewBox="0 0 15 15" id="hide">
<g clip-path="url(#clip0)" fill="#333">
<path d="M9.268 5.733a.313.313 0 0 0-.442.441c.354.354.55.825.55 1.326A1.877 1.877 0 0 1 7.5 9.375a1.86 1.86 0 0 1-1.326-.55.313.313 0 0 0-.442.443A2.48 2.48 0 0 0 7.501 10 2.501 2.501 0 0 0 10 7.5a2.48 2.48 0 0 0-.733-1.767zm-1.332-.69A2.505 2.505 0 0 0 7.5 5 2.503 2.503 0 0 0 5 7.5c0 .148.018.293.044.435a.313.313 0 0 0 .615-.109 1.812 1.812 0 0 1-.034-.326c0-1.034.841-1.875 1.875-1.875.112 0 .22.014.327.033a.312.312 0 1 0 .109-.615z"></path>
<path d="M14.926 7.298c-.071-.084-1.762-2.057-4.094-3.265a.313.313 0 0 0-.286.555c1.796.93 3.23 2.381 3.721 2.911-.744.807-3.676 3.75-6.767 3.75-1.049 0-2.106-.253-3.143-.753a.312.312 0 1 0-.27.563c1.121.542 2.27.816 3.413.816 3.85 0 7.282-4.003 7.426-4.174a.312.312 0 0 0 0-.403zM9.55 3.485a6.453 6.453 0 0 0-2.05-.36C3.65 3.125.218 7.127.074 7.298a.312.312 0 0 0-.018.38c.043.062 1.077 1.529 2.867 2.718a.31.31 0 0 0 .433-.088.312.312 0 0 0-.088-.432 11.429 11.429 0 0 1-2.552-2.36c.72-.78 3.67-3.766 6.784-3.766.582 0 1.205.11 1.851.326a.308.308 0 0 0 .396-.196.312.312 0 0 0-.196-.395z"></path>
<path d="M13.033 1.967a.313.313 0 0 0-.442 0L1.966 12.592a.313.313 0 0 0 .442.442L13.033 2.409a.313.313 0 0 0 0-.442z"></path>
</g>
<defs>
<clipPath id="clip0">
<path fill="#fff" d="M0 0h15v15H0z"></path>
</clipPath>
</defs>
</symbol>

<symbol viewBox="0 0 512.001 512.001" id="instagram">
<path d="M373.406 0H138.594C62.172 0 0 62.172 0 138.594V373.41C0 449.828 62.172 512 138.594 512H373.41C449.828 512 512 449.828 512 373.41V138.594C512 62.172 449.828 0 373.406 0zm108.578 373.41c0 59.867-48.707 108.574-108.578 108.574H138.594c-59.871 0-108.578-48.707-108.578-108.574V138.594c0-59.871 48.707-108.578 108.578-108.578H373.41c59.867 0 108.574 48.707 108.574 108.578zm0 0"></path>
<path d="M256 116.004c-77.195 0-139.996 62.8-139.996 139.996S178.804 395.996 256 395.996 395.996 333.196 395.996 256 333.196 116.004 256 116.004zm0 249.976c-60.64 0-109.98-49.335-109.98-109.98 0-60.64 49.34-109.98 109.98-109.98 60.645 0 109.98 49.34 109.98 109.98 0 60.645-49.335 109.98-109.98 109.98zM399.344 66.285c-22.813 0-41.367 18.559-41.367 41.367 0 22.813 18.554 41.371 41.367 41.371s41.37-18.558 41.37-41.37-18.558-41.368-41.37-41.368zm0 52.719c-6.258 0-11.352-5.094-11.352-11.352 0-6.261 5.094-11.351 11.352-11.351 6.261 0 11.355 5.09 11.355 11.351 0 6.258-5.094 11.352-11.355 11.352zm0 0"></path>
</symbol>

<symbol viewBox="-28 0 512 512.001" id="linkedin">
<path d="M104.36 151.625H18.046C8.37 151.625.5 159.496.5 169.172v325.285C.5 504.129 8.371 512 18.047 512h86.312c9.672 0 17.543-7.871 17.543-17.543V169.172c0-9.676-7.87-17.547-17.543-17.547zm-12.5 330.332H30.542V181.668h61.316zM61.203 0C27.453 0 0 27.453 0 61.2c0 33.75 27.453 61.202 61.203 61.202 33.742 0 61.2-27.453 61.2-61.203C122.402 27.453 94.948 0 61.202 0zm0 92.36c-17.183 0-31.16-13.977-31.16-31.16 0-17.18 13.977-31.157 31.16-31.157 17.18 0 31.156 13.977 31.156 31.156 0 17.18-13.976 31.16-31.156 31.16zm339.844 97.402c-20.633-17.223-46.863-26.434-73.832-25.934a113.183 113.183 0 0 0-47.95 11.66v-7.101c0-9.254-7.503-16.758-16.757-16.758h-87.883c-9.254 0-16.758 7.504-16.758 16.758v326.855c0 9.258 7.504 16.758 16.758 16.758h89.617c8.297 0 15.024-6.727 15.024-15.02V302.102c0-16.684 13.054-30.801 29.726-31.297 17.328-.512 31.586 13.43 31.586 30.644v195.844c0 8.121 6.586 14.707 14.707 14.707h86.13c8.12 0 14.706-6.586 14.706-14.707V307.406c0-45.547-20.074-88.43-55.074-117.644zm25.031 292.195h-55.453V301.449c0-33.469-27.23-60.699-60.703-60.699-33.469 0-60.7 27.23-60.7 60.7v180.507H187.91V181.668h61.313V203.5h.02a14.948 14.948 0 0 0 3.757 9.957c5.496 6.211 14.992 6.79 21.203 1.29a83.224 83.224 0 0 1 53.567-20.884c19.761-.375 38.94 6.367 54.027 18.961 28.144 23.492 44.281 57.965 44.281 94.582zm0 0"></path>
</symbol>

<symbol viewBox="0 0 16 20" id="upload">
<path d="M12.167 11.011V3.75a.417.417 0 0 0-.122-.295L8.71.122A.416.416 0 0 0 8.417 0h-6.25C1.247 0 .5.747.5 1.667v12.5c0 .919.747 1.666 1.667 1.666h4.187A4.588 4.588 0 0 0 10.917 20a4.589 4.589 0 0 0 4.583-4.583 4.588 4.588 0 0 0-3.333-4.406zM8.833 1.423l1.911 1.91H9.667a.834.834 0 0 1-.834-.833V1.423zM2.167 15a.834.834 0 0 1-.834-.833v-12.5c0-.46.374-.834.834-.834H8V2.5c0 .92.747 1.667 1.667 1.667h1.666v6.688a4.593 4.593 0 0 0-.416-.022A4.588 4.588 0 0 0 6.354 15H2.167zm8.75 4.167a3.754 3.754 0 0 1-3.75-3.75 3.754 3.754 0 0 1 3.75-3.75 3.754 3.754 0 0 1 3.75 3.75 3.754 3.754 0 0 1-3.75 3.75z"
fill="#000"></path>
<path d="M9.545 14.878l.955-.955v3.994a.416.416 0 1 0 .833 0v-3.994l.956.955a.417.417 0 0 0 .589-.59l-1.667-1.666a.415.415 0 0 0-.589 0L8.955 14.29a.416.416 0 1 0 .59.59z" fill="#000"></path>
</symbol>

<symbol viewBox="0 0 21 20"  id="reviews">
<path d="M10.003 1c-5.524 0-10 3.637-10 8.125 0 1.86.777 3.563 2.066 4.934-.582 1.539-1.793 2.843-1.813 2.859A.937.937 0 0 0 .94 18.5c2.402 0 4.423-1.195 5.56-2 1.129.355 2.003.5 3.503.5 4.997 0 9.997-3.5 10-7.875 0-4.488-4.477-8.125-10-8.125zm0 15C8.96 16 7.5 16 6.5 15.5c-3 2-5.5 2-5.5 2s2-2 2-4c-.707-.754-2-2.852-2-4.5 0-3.445 4.522-7 9.003-7C14.483 2 19 5.555 19 9s-4.517 7-8.997 7z"></path>
</symbol>

<symbol viewBox="0 0 20 18" id="aboutUs">
<path d="M7.937 12.19l.612-.988a.499.499 0 0 0-.163-.69.5.5 0 0 0-.69.163l-.612.988c-1.11 1.791-2.693 2.82-4.35 2.82H.498a.498.498 0 0 0-.498.502.5.5 0 0 0 .498.502h2.24c2.012-.008 3.906-1.208 5.2-3.298zm11.912-9.615L17.425.147a.498.498 0 0 0-.706 0 .497.497 0 0 0 0 .706l1.575 1.575h-2.322c-2.008 0-3.905 1.2-5.199 3.29l-.375.607a.499.499 0 1 0 .849.527l.375-.608c1.11-1.792 2.693-2.816 4.35-2.816h2.318l-1.575 1.575a.498.498 0 0 0 .355.853c.13 0 .257-.049.355-.147l2.428-2.428a.501.501 0 0 0-.004-.706zm-1.065.36v-.017l.008.008-.008.008z"></path>
<path d="M16.715 17.76a.497.497 0 0 0 .355.147c.13 0 .257-.05.355-.147l2.428-2.428a.498.498 0 0 0 0-.706l-2.428-2.424a.498.498 0 0 0-.706 0 .498.498 0 0 0 0 .706l1.575 1.575h-2.248c-1.653 0-3.24-1.029-4.35-2.82L8.015 5.717c-1.294-2.093-3.191-3.289-5.2-3.289H.499A.498.498 0 0 0 0 2.93a.5.5 0 0 0 .498.502h2.314c1.652 0 3.24 1.028 4.35 2.816l3.68 5.946c1.294 2.093 3.192 3.293 5.2 3.293h2.248l-1.575 1.575a.495.495 0 0 0 0 .698zm2.069-2.787l.008.008-.008.008v-.016z"></path>
</symbol>
</svg>